<svg width="94" height="25" xmlns="http://www.w3.org/2000/svg" xmlns:xlink="http://www.w3.org/1999/xlink"><defs><path id="path-1" d="M0 .006h93.162v23.36H0z"/></defs><g id="Webpages" stroke="none" stroke-width="1" fill="none" fill-rule="evenodd"><g id="Mobile-Copy" transform="translate(-26 -18)"><g id="Group-13" transform="translate(26 18.75)"><path id="Fill-1" fill="#000" d="M32.712 16.965l5.776-9.663h-5.132v-2.14h9.01v.323l-5.657 9.663h5.454v2.156h-9.45z"/><g id="Group-12" transform="translate(0 .106)"><mask id="mask-2" fill="#fff"><use xlink:href="#path-1"/></mask><path d="M43.806 17.198h2.44V8.317h-2.44v8.881zM43.62 5.77c0-.764.61-1.341 1.389-1.341.796 0 1.406.577 1.406 1.341 0 .765-.61 1.342-1.406 1.342-.78 0-1.39-.577-1.39-1.342z" id="Fill-2" fill="#000" mask="url(#mask-2)"/><path d="M48.328 8.317h2.456v1.41c.44-.884 1.406-1.614 2.88-1.614 1.744 0 2.98 1.053 2.98 3.43v5.655H54.19V11.9c0-1.206-.475-1.783-1.559-1.783-1.05 0-1.846.645-1.846 1.953v5.128h-2.456V8.317z" id="Fill-4" fill="#000" mask="url(#mask-2)"/><path d="M63.606 14.09v-.747h-.949c-1.422 0-2.252.306-2.252 1.257 0 .645.39 1.07 1.287 1.07 1.084 0 1.914-.595 1.914-1.58M58 14.736c0-2.072 1.897-2.853 4.607-2.853h.999v-.357c0-1.053-.322-1.63-1.44-1.63-.965 0-1.406.492-1.507 1.257h-2.32c.152-2.106 1.812-3.04 3.98-3.04s3.709.883 3.709 3.294v5.791H63.64v-1.07c-.508.713-1.288 1.257-2.676 1.257-1.61 0-2.964-.781-2.964-2.65" id="Fill-5" fill="#000" mask="url(#mask-2)"/><path d="M67.417 12.868v-.136c0-2.87 2.05-4.62 4.573-4.62 2.05 0 3.946.9 4.167 3.448h-2.32c-.17-1.036-.797-1.511-1.796-1.511-1.27 0-2.117.95-2.117 2.649v.136c0 1.783.796 2.7 2.168 2.7.982 0 1.778-.577 1.897-1.715h2.218c-.135 2.105-1.66 3.566-4.234 3.566-2.591 0-4.556-1.613-4.556-4.517" id="Fill-6" fill="#000" mask="url(#mask-2)"/><path d="M83.88 12.817v-.12c0-1.697-.796-2.716-2.168-2.716-1.355 0-2.168.985-2.168 2.683v.136c0 1.698.78 2.717 2.168 2.717 1.372 0 2.168-1.019 2.168-2.7m-6.843.034v-.136c0-2.785 2.016-4.602 4.675-4.602 2.66 0 4.658 1.783 4.658 4.55v.137c0 2.802-2.016 4.585-4.675 4.585-2.642 0-4.658-1.766-4.658-4.534" id="Fill-7" fill="#000" mask="url(#mask-2)"/><path d="M87.843 8.317H90.3v1.698c.56-1.189 1.423-1.817 2.863-1.834v2.292c-1.813-.017-2.863.578-2.863 2.276v4.45h-2.456V8.316z" id="Fill-8" fill="#000" mask="url(#mask-2)"/><path d="M23.299.006H0v23.36h23.299V.006zM1.662 21.699h19.974V1.673H1.662v20.026z" id="Fill-9" fill="#2E1785" mask="url(#mask-2)"/><path id="Fill-10" fill="#000" mask="url(#mask-2)" d="M8.376 14.122l3.64-5.587H8.743V6.95h6.235v.255l-3.668 5.56h3.527v1.583H8.376z"/><path id="Fill-11" fill="#000" mask="url(#mask-2)" d="M9.985 16.991h3.329v-.667h-3.33z"/></g></g></g></g></svg>